<svg fill="none" viewBox="0 0 25 25" xmlns="http://www.w3.org/2000/svg"><g color="#000"><path style="-inkscape-stroke:none" d="M24.5 12.5a12 12 0 0 1-12 12 12 12 0 0 1-12-12 12 12 0 0 1 12-12 12 12 0 0 1 12 12z" fill="#fff"/><path style="-inkscape-stroke:none" d="M12.5 0C5.602 0 0 5.602 0 12.5S5.602 25 12.5 25 25 19.398 25 12.5 19.398 0 12.5 0Zm0 1C18.857 1 24 6.143 24 12.5S18.857 24 12.5 24 1 18.857 1 12.5 6.143 1 12.5 1Z" fill="#ff6c00"/></g><path fill-rule="evenodd" clip-rule="evenodd" d="M13 6h-1v6H6v1h6v6h1v-6h6v-1h-6V6Z" fill="#FF6C00"/></svg>