<svg fill="none" viewBox="0 0 37 37" xmlns="http://www.w3.org/2000/svg"><g color="#000"><path style="-inkscape-stroke:none" d="M30.5 18.5a12 12 0 0 1-12 12 12 12 0 0 1-12-12 12 12 0 0 1 12-12 12 12 0 0 1 12 12z" fill="#fff" transform="rotate(-45 18.5 18.5)"/><path style="-inkscape-stroke:none" d="M18.5 6C11.602 6 6 11.602 6 18.5S11.602 31 18.5 31 31 25.398 31 18.5 25.398 6 18.5 6Zm0 1C24.857 7 30 12.143 30 18.5S24.857 30 18.5 30 7 24.857 7 18.5 12.143 7 18.5 7Z" fill="#e8e8e8" transform="rotate(-45 18.5 18.5)"/></g><path fill-rule="evenodd" clip-rule="evenodd" d="m14.257 13.55-.707.707 4.243 4.243-4.243 4.243.707.707 4.243-4.243 4.243 4.243.707-.707-4.243-4.243 4.243-4.243-.707-.707-4.243 4.243-4.243-4.243Z" fill="#BDBDBD"/></svg>