<svg fill="none" viewBox="0 0 24 24" xmlns="http://www.w3.org/2000/svg"><path fill="#fff" d="M0 0h24v24H0z"/><path style="-inkscape-stroke:none" d="M3 2.5a.5.5 0 0 0-.5.5v7a.5.5 0 0 0 .5.5h7a.5.5 0 0 0 .5-.5V3a.5.5 0 0 0-.5-.5Zm11 0a.5.5 0 0 0-.5.5v7a.5.5 0 0 0 .5.5h7a.5.5 0 0 0 .5-.5V3a.5.5 0 0 0-.5-.5Zm-10.5 1h6v6h-6zm11 0h6v6h-6zM3 13.5a.5.5 0 0 0-.5.5v7a.5.5 0 0 0 .5.5h7a.5.5 0 0 0 .5-.5v-7a.5.5 0 0 0-.5-.5Zm11 0a.5.5 0 0 0-.5.5v7a.5.5 0 0 0 .5.5h7a.5.5 0 0 0 .5-.5v-7a.5.5 0 0 0-.5-.5Zm-10.5 1h6v6h-6zm11 0h6v6h-6z" color="#000" clip-rule="evenodd" fill="#212121" fill-opacity=".8"/></svg>