<svg aria-hidden="true" style="position: absolute; width: 0; height: 0; overflow: hidden;" version="1.1" xmlns="http://www.w3.org/2000/svg" xmlns:xlink="http://www.w3.org/1999/xlink">
<defs>
<symbol id="icon-add" viewBox="0 0 32 32">
<path fill="#fff" style="fill: var(--color1, #fff)" d="M31.36 16c0 8.483-6.877 15.36-15.36 15.36v0c-8.483 0-15.36-6.877-15.36-15.36v0c0-8.483 6.877-15.36 15.36-15.36v0c8.483 0 15.36 6.877 15.36 15.36v0z"></path>
<path fill="#ff6c00" style="fill: var(--color2, #ff6c00)" d="M16 0c-8.829 0-16 7.171-16 16s7.171 16 16 16 16-7.171 16-16-7.171-16-16-16zM16 1.28c8.137 0 14.72 6.583 14.72 14.72s-6.583 14.72-14.72 14.72-14.72-6.583-14.72-14.72 6.583-14.72 14.72-14.72z"></path>
<path fill="#ff6c00" style="fill: var(--color2, #ff6c00)" d="M16.64 7.68h-1.28v7.68h-7.68v1.28h7.68v7.68h1.28v-7.68h7.68v-1.28h-7.68v-7.68z"></path>
</symbol>
<symbol id="icon-message-circle" viewBox="0 0 32 32">
<path fill="#bdbdbd" style="fill: var(--color3, #bdbdbd)" d="M14.631 3.333c-6.093 0.351-10.947 5.204-11.296 11.265l-0.001 0.032c-0 0.005-0 0.012-0 0.018s0 0.013 0 0.019l-0-0.001v0.667c-0 0.009-0 0.019-0 0.030 0 1.947 0.47 3.783 1.302 5.403l-0.031-0.067c2.014 3.963 6.060 6.631 10.729 6.633h0c1.739 0.004 3.432-0.453 5.005-1.185l7.451 2.485c0.063 0.022 0.136 0.035 0.212 0.035 0.368 0 0.667-0.298 0.667-0.667 0-0.076-0.013-0.149-0.036-0.217l0.001 0.005-2.485-7.451c0.733-1.573 1.189-3.269 1.185-5.008-0.004-4.668-2.672-8.713-6.565-10.695l-0.068-0.032h-0.003c-1.553-0.801-3.39-1.271-5.337-1.271-0.010 0-0.019 0-0.029 0h-0.665c-0.005-0-0.012-0-0.018-0s-0.013 0-0.019 0l0.001-0zM14.703 4.667h0.631c0 0 0.001 0 0.001 0s0.001 0 0.001 0h-0c0.008-0 0.018-0 0.028-0 1.727 0 3.357 0.417 4.794 1.156l-0.059-0.028c0.001 0.001 0.002 0.002 0.003 0.003l0 0c3.524 1.788 5.897 5.385 5.899 9.536v0c0 0 0 0.001 0 0.001s0 0.001 0 0.001v-0c0 0.008 0 0.018 0 0.028 0 1.727-0.417 3.357-1.156 4.794l0.028-0.059c-0.046 0.088-0.073 0.192-0.073 0.303 0 0.075 0.012 0.148 0.035 0.215l-0.001-0.005 2.112 6.333-6.333-2.112c-0.062-0.021-0.134-0.034-0.209-0.034-0.111 0-0.216 0.027-0.308 0.075l0.004-0.002c-1.377 0.71-3.006 1.127-4.732 1.127-0.011 0-0.021-0-0.032-0h0.002c-0 0-0.001 0-0.001 0s-0.001 0-0.001 0h0c-4.151-0.001-7.748-2.375-9.508-5.838l-0.028-0.061c-0.001-0.001-0.002-0.002-0.003-0.003l-0-0c-0.711-1.378-1.128-3.008-1.128-4.735 0-0.010 0-0.020 0-0.030v0.002c0-0 0-0.001 0-0.001s0-0.001 0-0.001v0-0.631c0.304-5.416 4.62-9.732 10.008-10.035l0.028-0.001z"></path>
</symbol>
<symbol id="icon-logout" viewBox="0 0 32 32">
<path fill="#bdbdbd" style="fill: var(--color3, #bdbdbd)" d="M6.667 2c-1.839 0.006-3.327 1.495-3.333 3.333v21.334c0 1.833 1.5 3.333 3.333 3.333h6.667c0.368 0 0.667-0.298 0.667-0.667v0c0-0.368-0.298-0.667-0.667-0.667v0h-6.667c-1.112 0-2-0.888-2-2v-21.333c0-1.112 0.888-2 2-2h6.667c0.368 0 0.667-0.298 0.667-0.667v0c0-0.368-0.298-0.667-0.667-0.667v0zM22.195 10.195c-0.121 0.121-0.196 0.288-0.196 0.472s0.075 0.351 0.196 0.472v0l4.196 4.195h-14.391c-0.368 0-0.667 0.298-0.667 0.667v0c0 0.368 0.298 0.667 0.667 0.667v0h14.391l-4.196 4.195c-0.121 0.121-0.196 0.288-0.196 0.472s0.075 0.351 0.196 0.472v0c0.121 0.121 0.288 0.196 0.472 0.196s0.351-0.075 0.472-0.196v0l5.333-5.333c0.12-0.121 0.195-0.287 0.195-0.471 0-0 0-0.001 0-0.001v0c0-0.001 0-0.002 0-0.003 0-0.091-0.018-0.177-0.051-0.256l0.002 0.004c-0.036-0.085-0.085-0.157-0.147-0.217l-5.333-5.333c-0.121-0.121-0.287-0.195-0.471-0.195s-0.351 0.075-0.471 0.195v0z"></path>
</symbol>
<symbol id="icon-delete" viewBox="0 0 32 32">
<path fill="#fff" style="fill: var(--color1, #fff)" d="M23.339 8.661c4.053 4.053 4.053 10.624 0 14.677v0c-4.053 4.053-10.624 4.053-14.677 0v0c-4.053-4.053-4.053-10.624 0-14.677v0c4.053-4.053 10.624-4.053 14.677 0v0z"></path>
<path fill="#e8e8e8" style="fill: var(--color4, #e8e8e8)" d="M8.356 8.356c-4.218 4.218-4.218 11.070 0 15.289s11.070 4.218 15.289 0 4.218-11.070 0-15.289-11.070-4.218-15.289 0zM8.967 8.967c3.888-3.888 10.178-3.888 14.066 0s3.888 10.178 0 14.066-10.178 3.888-14.066 0-3.888-10.178 0-14.066z"></path>
<path fill="#bdbdbd" style="fill: var(--color3, #bdbdbd)" d="M12.33 11.719l-0.611 0.611 3.67 3.67-3.67 3.67 0.611 0.611 3.67-3.67 3.67 3.67 0.611-0.611-3.67-3.67 3.67-3.67-0.611-0.611-3.67 3.67-3.67-3.67z"></path>
</symbol>
<symbol id="icon-user" viewBox="0 0 32 32">
<path d="M10.667 19.333c-3.307 0-6 2.693-6 6v2.667c0 0.368 0.298 0.667 0.667 0.667v0c0.368 0 0.667-0.298 0.667-0.667v0-2.667c0-2.585 2.081-4.667 4.667-4.667h10.667c2.585 0 4.667 2.081 4.667 4.667v2.667c0 0.368 0.298 0.667 0.667 0.667v0c0.368 0 0.667-0.298 0.667-0.667v0-2.667c0-3.307-2.693-6-6-6z"></path>
<path d="M16 3.333c-1.944 0-3.487 0.753-4.497 1.891s-1.503 2.627-1.503 4.109c0 1.481 0.492 2.972 1.503 4.109s2.553 1.891 4.497 1.891c1.944 0 3.487-0.753 4.497-1.891s1.503-2.627 1.503-4.109c0-1.481-0.492-2.972-1.503-4.109s-2.553-1.891-4.497-1.891zM16 4.667c1.611 0 2.736 0.58 3.503 1.443s1.164 2.040 1.164 3.224c0 1.185-0.397 2.361-1.164 3.224s-1.892 1.443-3.503 1.443c-1.611 0-2.736-0.58-3.503-1.443s-1.164-2.040-1.164-3.224c0-1.185 0.397-2.361 1.164-3.224s1.892-1.443 3.503-1.443z"></path>
</symbol>
<symbol id="icon-grid" viewBox="0 0 32 32">
<path fill="#fff" style="fill: var(--color1, #fff)" d="M0 0h32v32h-32z"></path>
<path fill="#212121" style="fill: var(--color5, #212121)" opacity="0.8" d="M4 3.333c-0.368 0-0.667 0.298-0.667 0.667v0 9.333c0 0.368 0.298 0.667 0.667 0.667v0h9.333c0.368 0 0.667-0.298 0.667-0.667v0-9.333c0-0.368-0.298-0.667-0.667-0.667v0zM18.667 3.333c-0.368 0-0.667 0.298-0.667 0.667v0 9.333c0 0.368 0.298 0.667 0.667 0.667v0h9.333c0.368 0 0.667-0.298 0.667-0.667v0-9.333c0-0.368-0.298-0.667-0.667-0.667v0zM4.667 4.667h8v8h-8zM19.333 4.667h8v8h-8zM4 18c-0.368 0-0.667 0.298-0.667 0.667v0 9.333c0 0.368 0.298 0.667 0.667 0.667v0h9.333c0.368 0 0.667-0.298 0.667-0.667v0-9.333c0-0.368-0.298-0.667-0.667-0.667v0zM18.667 18c-0.368 0-0.667 0.298-0.667 0.667v0 9.333c0 0.368 0.298 0.667 0.667 0.667v0h9.333c0.368 0 0.667-0.298 0.667-0.667v0-9.333c0-0.368-0.298-0.667-0.667-0.667v0zM4.667 19.333h8v8h-8zM19.333 19.333h8v8h-8z"></path>
</symbol>
<symbol id="icon-arrow-left" viewBox="0 0 32 32">
<path d="M12.861 7.528l-8 8c-0.12 0.121-0.195 0.287-0.195 0.471 0 0 0 0.001 0 0.001v-0c0 0 0 0.001 0 0.001 0 0.184 0.074 0.35 0.195 0.471v0l8 8c0.121 0.121 0.288 0.196 0.472 0.196s0.351-0.075 0.472-0.196v0c0.121-0.121 0.196-0.288 0.196-0.472s-0.075-0.351-0.196-0.472v0l-6.863-6.861h19.724c0.368 0 0.667-0.298 0.667-0.667v0c0-0.368-0.298-0.667-0.667-0.667v0h-19.724l6.863-6.861c0.121-0.121 0.196-0.288 0.196-0.472s-0.075-0.351-0.196-0.472v0c-0.121-0.121-0.288-0.196-0.472-0.196s-0.351 0.075-0.472 0.196v0z"></path>
</symbol>
<symbol id="icon-map-pin" viewBox="0 0 32 32">
<path fill="#bdbdbd" style="fill: var(--color3, #bdbdbd)" d="M16 3.333c-6.223 0-11.333 4.671-11.333 10.484 0 4.128 2.811 7.784 5.536 10.433 2.725 2.648 5.448 4.317 5.448 4.317 0.099 0.062 0.22 0.099 0.349 0.099s0.25-0.037 0.352-0.101l-0.003 0.002s2.723-1.669 5.448-4.317c2.725-2.649 5.536-6.305 5.536-10.433 0-5.813-5.111-10.484-11.333-10.484zM16 4.667c5.56 0 10 4.12 10 9.151 0 3.507-2.523 6.943-5.131 9.477-2.433 2.364-4.555 3.664-4.869 3.861-0.315-0.197-2.436-1.497-4.869-3.861-2.608-2.533-5.131-5.971-5.131-9.477 0-5.031 4.44-9.151 10-9.151z"></path>
<path fill="#bdbdbd" style="fill: var(--color3, #bdbdbd)" d="M16 10c-1.5 0-2.708 0.587-3.497 1.473-0.789 0.888-1.169 2.047-1.169 3.193s0.38 2.305 1.169 3.193c0.789 0.887 1.997 1.473 3.497 1.473s2.708-0.587 3.497-1.473c0.789-0.888 1.169-2.045 1.169-3.193s-0.38-2.305-1.169-3.193c-0.789-0.887-1.997-1.473-3.497-1.473zM16 11.333c1.167 0 1.959 0.413 2.503 1.027 0.544 0.612 0.831 1.455 0.831 2.307s-0.287 1.695-0.831 2.307c-0.544 0.613-1.336 1.027-2.503 1.027s-1.959-0.413-2.503-1.027c-0.544-0.612-0.831-1.453-0.831-2.307s0.287-1.695 0.831-2.307c0.544-0.613 1.336-1.027 2.503-1.027z"></path>
</symbol>
<symbol id="icon-trash" viewBox="0 0 32 32">
<path fill="#bdbdbd" style="fill: var(--color3, #bdbdbd)" d="M4 7.333c-0.368 0-0.667 0.298-0.667 0.667v0c0 0.368 0.298 0.667 0.667 0.667v0h24c0.368 0 0.667-0.298 0.667-0.667v0c0-0.368-0.298-0.667-0.667-0.667v0z"></path>
<path fill="#bdbdbd" style="fill: var(--color3, #bdbdbd)" d="M26 8c0-0.368-0.298-0.667-0.667-0.667s-0.667 0.298-0.667 0.667v0h1.333zM7.333 8c0-0.368-0.298-0.667-0.667-0.667s-0.667 0.298-0.667 0.667v0h1.333zM10 8c0 0.368 0.298 0.667 0.667 0.667s0.667-0.298 0.667-0.667v0h-1.333zM20.667 8c0 0.368 0.298 0.667 0.667 0.667s0.667-0.298 0.667-0.667v0h-1.333zM24.667 8v18.667h1.333v-18.667h-1.333zM24.667 26.667c0 1.105-0.895 2-2 2v0 1.333c1.841 0 3.333-1.492 3.333-3.333v0h-1.333zM22.667 28.667h-13.333v1.333h13.333v-1.333zM9.333 28.667c-1.105 0-2-0.895-2-2v0h-1.333c0 1.841 1.492 3.333 3.333 3.333v0-1.333zM7.333 26.667v-18.667h-1.333v18.667h1.333zM11.333 8v-2.667h-1.333v2.667h1.333zM11.333 5.333c0-1.105 0.895-2 2-2v0-1.333c-1.841 0-3.333 1.492-3.333 3.333v0h1.333zM13.333 3.333h5.333v-1.333h-5.333v1.333zM18.667 3.333c1.105 0 2 0.895 2 2v0h1.333c0-1.841-1.492-3.333-3.333-3.333v0 1.333zM20.667 5.333v2.667h1.333v-2.667h-1.333z"></path>
<path fill="#bdbdbd" style="fill: var(--color3, #bdbdbd)" d="M13.333 14c-0.368 0-0.667 0.298-0.667 0.667v0 8c0 0.368 0.298 0.667 0.667 0.667v0c0.368 0 0.667-0.298 0.667-0.667v0-8c0-0.368-0.298-0.667-0.667-0.667v0zM18.667 14c-0.368 0-0.667 0.298-0.667 0.667v0 8c0 0.368 0.298 0.667 0.667 0.667v0c0.368 0 0.667-0.298 0.667-0.667v0-8c0-0.368-0.298-0.667-0.667-0.667v0z"></path>
</symbol>
<symbol id="icon-thumbs-up" viewBox="0 0 32 32">
<path fill="#ff6c00" style="fill: var(--color2, #ff6c00)" d="M17.82 10.133h-0.667c0 0.368 0.298 0.667 0.667 0.667v0-0.667zM17.82 5.867v0zM14.365 2.667v-0.667c-0 0-0 0-0 0-0.263 0-0.491 0.153-0.6 0.375l-0.002 0.004 0.6 0.288zM9.759 12.267l-0.601-0.288c-0.042 0.084-0.066 0.183-0.067 0.288v0h0.667zM9.759 24h-0.667c0 0.368 0.298 0.667 0.667 0.667v0-0.667zM22.748 24l0.008-0.667h-0.008v0.667zM25.052 22.187l-0.659-0.109v0.001l0.659 0.107zM26.64 12.587l0.659 0.109v-0.003l-0.659-0.108zM24.337 10.133v0.667h0.007l-0.007-0.667zM9.76 24v0.667c0.368 0 0.667-0.298 0.667-0.667v0h-0.667zM9.76 12.267h0.667c0-0.368-0.298-0.667-0.667-0.667v0 0.667zM18.488 10.133v-4.267h-1.333v4.267h1.333zM18.488 5.867c0-2.183-1.895-3.867-4.121-3.867v1.333c1.588 0 2.787 1.181 2.787 2.533h1.333zM13.765 2.379l-4.607 9.6 1.201 0.576 4.607-9.6-1.201-0.576zM9.092 12.267v11.733h1.333v-11.733h-1.333zM9.759 24.667h12.989v-1.333h-12.988v1.333zM22.741 24.667c1.44 0.015 2.736-0.96 2.968-2.373l-1.316-0.213c-0.113 0.689-0.78 1.263-1.639 1.253l-0.013 1.333zM25.709 22.296l1.589-9.6-1.316-0.219-1.589 9.6 1.316 0.219zM27.299 12.695c0.021-0.128 0.034-0.275 0.034-0.425 0-0.721-0.284-1.377-0.745-1.86l0.001 0.001-0.973 0.912c0.308 0.327 0.435 0.749 0.368 1.156l1.316 0.216zM26.588 10.411c-0.557-0.582-1.34-0.944-2.208-0.944-0.017 0-0.035 0-0.052 0l0.003-0 0.013 1.333c0.011-0 0.024-0 0.037-0 0.484 0 0.922 0.2 1.235 0.523l0 0 0.972-0.912zM24.337 9.467h-6.517v1.333h6.517v-1.333zM9.76 23.333h-3.457v1.333h3.457v-1.333zM6.304 23.333c-0.952 0-1.636-0.704-1.636-1.467h-1.333c0 1.593 1.379 2.8 2.969 2.8v-1.333zM4.667 21.867v-7.467h-1.333v7.467h1.333zM4.667 14.4c0-0.763 0.684-1.467 1.636-1.467v-1.333c-1.591 0-2.969 1.207-2.969 2.8h1.333zM6.303 12.933h3.457v-1.333h-3.457v1.333zM9.092 12.267v11.733h1.333v-11.733h-1.333z"></path>
</symbol>
<symbol id="icon-send" viewBox="0 0 32 32">
<path fill="#ff6c00" style="fill: var(--color2, #ff6c00)" d="M32 16c0 8.837-7.163 16-16 16s-16-7.163-16-16c0-8.837 7.163-16 16-16s16 7.163 16 16z"></path>
<path fill="#fff" style="fill: var(--color1, #fff)" d="M16 9.412l0.333-0.333c-0.085-0.085-0.203-0.138-0.333-0.138s-0.248 0.053-0.333 0.138v0l0.333 0.333zM20.373 14.451c0.085 0.085 0.203 0.138 0.333 0.138 0.26 0 0.471-0.211 0.471-0.471 0-0.13-0.053-0.248-0.138-0.333v0l-0.666 0.666zM10.961 13.784c-0.085 0.085-0.138 0.203-0.138 0.333 0 0.26 0.211 0.471 0.471 0.471 0.13 0 0.248-0.053 0.333-0.138v0l-0.666-0.666zM15.529 22.588c0 0.26 0.211 0.471 0.471 0.471s0.471-0.211 0.471-0.471v0h-0.941zM15.667 9.745l4.706 4.706 0.666-0.666-4.706-4.706-0.666 0.666zM15.667 9.079l-4.706 4.706 0.666 0.666 4.706-4.706-0.666-0.666zM15.529 9.412v6.588h0.941v-6.588h-0.941zM15.529 16v6.588h0.941v-6.588h-0.941z"></path>
</symbol>
<symbol id="icon-camera" viewBox="0 0 32 32">
<path fill="#bdbdbd" style="fill: var(--color3, #bdbdbd)" d="M16 20.267c2.356 0 4.267-1.91 4.267-4.267s-1.91-4.267-4.267-4.267v0c-2.356 0-4.267 1.91-4.267 4.267s1.91 4.267 4.267 4.267v0z"></path>
<path fill="#bdbdbd" style="fill: var(--color3, #bdbdbd)" d="M12 2.667l-2.44 2.667h-4.227c-1.467 0-2.667 1.2-2.667 2.667v16c0 1.467 1.2 2.667 2.667 2.667h21.333c1.467 0 2.667-1.2 2.667-2.667v-16c0-1.467-1.2-2.667-2.667-2.667h-4.227l-2.44-2.667h-8zM16 22.667c-3.68 0-6.667-2.987-6.667-6.667s2.987-6.667 6.667-6.667 6.667 2.987 6.667 6.667-2.987 6.667-6.667 6.667z"></path>
</symbol>
<symbol id="icon-union" viewBox="0 0 32 32">
<path fill="#fff" style="fill: var(--color1, #fff)" d="M17.143 1.143h-2.286v13.714h-13.714v2.286h13.714v13.714h2.286v-13.714h13.714v-2.286h-13.714v-13.714z"></path>
</symbol>
</defs>
</svg>
