<svg fill="none" viewBox="0 0 24 24" xmlns="http://www.w3.org/2000/svg"><path style="-inkscape-stroke:none" d="M5 1.5A2.508 2.508 0 0 0 2.5 4v16c0 1.375 1.125 2.5 2.5 2.5h5a.5.5 0 0 0 .5-.5.5.5 0 0 0-.5-.5H5c-.834 0-1.5-.666-1.5-1.5V4c0-.834.666-1.5 1.5-1.5h5a.5.5 0 0 0 .5-.5.5.5 0 0 0-.5-.5Zm11.646 6.146a.5.5 0 0 0 0 .708l3.147 3.146H9a.5.5 0 0 0-.5.5.5.5 0 0 0 .5.5h10.793l-3.147 3.146a.5.5 0 0 0 0 .708.5.5 0 0 0 .708 0l4-4A.5.5 0 0 0 21.5 12a.5.5 0 0 0-.037-.191.5.5 0 0 0-.11-.163l-4-4a.5.5 0 0 0-.707 0z" color="#000" fill="#bdbdbd"/></svg>