<svg fill="none" viewBox="0 0 24 24" xmlns="http://www.w3.org/2000/svg"><path style="-inkscape-stroke:none" d="M12 2.5c-4.667 0-8.5 3.503-8.5 7.863 0 3.096 2.108 5.838 4.152 7.825 2.044 1.986 4.086 3.238 4.086 3.238a.5.5 0 0 0 .524 0s2.042-1.252 4.086-3.238c2.044-1.987 4.152-4.729 4.152-7.825 0-4.36-3.833-7.863-8.5-7.863Zm0 1c4.17 0 7.5 3.09 7.5 6.863 0 2.63-1.892 5.207-3.848 7.108-1.825 1.773-3.416 2.748-3.652 2.896-.236-.148-1.827-1.123-3.652-2.896-1.956-1.9-3.848-4.478-3.848-7.108C4.5 6.59 7.83 3.5 12 3.5Z" color="#000" clip-rule="evenodd" fill="#bdbdbd"/><path style="-inkscape-stroke:none" d="M12 7.5c-1.125 0-2.031.44-2.623 1.105C8.785 9.271 8.5 10.14 8.5 11s.285 1.729.877 2.395C9.969 14.06 10.875 14.5 12 14.5c1.125 0 2.031-.44 2.623-1.105.592-.666.877-1.534.877-2.395s-.285-1.729-.877-2.395C14.031 7.94 13.125 7.5 12 7.5Zm0 1c.875 0 1.469.31 1.877.77.408.459.623 1.091.623 1.73s-.215 1.271-.623 1.73c-.408.46-1.002.77-1.877.77s-1.469-.31-1.877-.77C9.715 12.271 9.5 11.64 9.5 11s.215-1.271.623-1.73c.408-.46 1.002-.77 1.877-.77Z" color="#000" clip-rule="evenodd" fill="#bdbdbd"/></svg>