<svg fill="none" viewBox="0 0 24 24" xmlns="http://www.w3.org/2000/svg"><path style="-inkscape-stroke:none" d="M10.973 2.5A8.988 8.988 0 0 0 2.5 10.973a.5.5 0 0 0 0 .027v.5a8.882 8.882 0 0 0 .953 4.025A9.003 9.003 0 0 0 11.5 20.5c1.304.003 2.574-.34 3.754-.889l5.588 1.864a.5.5 0 0 0 .633-.633l-1.864-5.588c.55-1.18.892-2.452.889-3.756a9.003 9.003 0 0 0-4.975-8.045h-.002A8.882 8.882 0 0 0 11.5 2.5H11a.5.5 0 0 0-.027 0zm.054 1h.473a.5.5 0 0 0 .002 0 7.875 7.875 0 0 1 3.572.846.5.5 0 0 0 .002.002A7.997 7.997 0 0 1 19.5 11.5a.5.5 0 0 0 0 .002 7.876 7.876 0 0 1-.846 3.572.5.5 0 0 0-.029.385l1.584 4.75-4.75-1.584a.5.5 0 0 0-.385.03 7.876 7.876 0 0 1-3.572.845.5.5 0 0 0-.002 0 7.997 7.997 0 0 1-7.152-4.424.5.5 0 0 0-.002-.002 7.875 7.875 0 0 1-.846-3.572.5.5 0 0 0 0-.002v-.473A7.972 7.972 0 0 1 11.027 3.5Z" color="#000" clip-rule="evenodd" fill="#bdbdbd"/></svg>