<svg fill="none" viewBox="0 0 24 24" xmlns="http://www.w3.org/2000/svg"><path style="-inkscape-stroke:none" d="M3 5.5a.5.5 0 0 0-.5.5.5.5 0 0 0 .5.5h18a.5.5 0 0 0 .5-.5.5.5 0 0 0-.5-.5Z" color="#000" fill="#bdbdbd"/><path d="M19.5 6a.5.5 0 0 0-1 0h1Zm-14 0a.5.5 0 0 0-1 0h1Zm2 0a.5.5 0 0 0 1 0h-1Zm8 0a.5.5 0 0 0 1 0h-1Zm3 0v14h1V6h-1Zm0 14a1.5 1.5 0 0 1-1.5 1.5v1a2.5 2.5 0 0 0 2.5-2.5h-1ZM17 21.5H7v1h10v-1Zm-10 0A1.5 1.5 0 0 1 5.5 20h-1A2.5 2.5 0 0 0 7 22.5v-1ZM5.5 20V6h-1v14h1Zm3-14V4h-1v2h1Zm0-2A1.5 1.5 0 0 1 10 2.5v-1A2.5 2.5 0 0 0 7.5 4h1ZM10 2.5h4v-1h-4v1Zm4 0A1.5 1.5 0 0 1 15.5 4h1A2.5 2.5 0 0 0 14 1.5v1ZM15.5 4v2h1V4h-1Z" fill="#BDBDBD"/><path style="-inkscape-stroke:none" d="M10 10.5a.5.5 0 0 0-.5.5v6a.5.5 0 0 0 .5.5.5.5 0 0 0 .5-.5v-6a.5.5 0 0 0-.5-.5Zm4 0a.5.5 0 0 0-.5.5v6a.5.5 0 0 0 .5.5.5.5 0 0 0 .5-.5v-6a.5.5 0 0 0-.5-.5Z" color="#000" fill="#bdbdbd"/></svg>