<svg fill="none" viewBox="0 0 24 24" xmlns="http://www.w3.org/2000/svg"><path style="-inkscape-stroke:none" d="M8 14.5c-2.48 0-4.5 2.02-4.5 4.5v2a.5.5 0 0 0 .5.5.5.5 0 0 0 .5-.5v-2c0-1.939 1.561-3.5 3.5-3.5h8c1.939 0 3.5 1.561 3.5 3.5v2a.5.5 0 0 0 .5.5.5.5 0 0 0 .5-.5v-2c0-2.48-2.02-4.5-4.5-4.5z" color="#000" fill="#212121" fill-opacity=".8"/><path style="-inkscape-stroke:none" d="M12 2.5c-1.458 0-2.615.565-3.373 1.418S7.5 5.888 7.5 7c0 1.111.369 2.229 1.127 3.082.758.853 1.915 1.418 3.373 1.418 1.458 0 2.615-.565 3.373-1.418S16.5 8.112 16.5 7c0-1.111-.369-2.229-1.127-3.082C14.615 3.065 13.458 2.5 12 2.5Zm0 1c1.208 0 2.052.435 2.627 1.082.575.647.873 1.53.873 2.418 0 .889-.298 1.771-.873 2.418-.575.647-1.419 1.082-2.627 1.082-1.208 0-2.052-.435-2.627-1.082C8.798 8.771 8.5 7.888 8.5 7c0-.889.298-1.771.873-2.418C9.948 3.935 10.792 3.5 12 3.5Z" color="#000" clip-rule="evenodd" fill="#212121" fill-opacity=".8"/></svg>